<?xml version="1.0" encoding="iso-8859-1"?>
<!-- Generator: Adobe Illustrator 30.2.1, SVG Export Plug-In . SVG Version: 9.03 Build 0)  -->
<svg version="1.1" id="kreslici-platno-1" xmlns="http://www.w3.org/2000/svg" xmlns:xlink="http://www.w3.org/1999/xlink" x="0px"
	 y="0px" viewBox="0 0 229.8181763 42.5196533" style="enable-background:new 0 0 229.8181763 42.5196533;" xml:space="preserve">
<g>
	<path d="M46.687439,19.734314c-4.734436,0-6.562561,3.375061-9.515564,3.375061C29.7186279,23.109375,44.9060669,0,30.46875,0
		C16.359314,0,0,20.718689,0,32.953064c0,6.421936,3.515625,8.859375,7.359314,8.859375
		c9.0936279,0,15.234375-6.796814,22.031189-6.796814c6.7967529,0,6.562561,5.7657471,13.781311,5.7657471
		c6.375,0,10.7811279-5.390686,10.7811279-11.5314331C53.9529419,23.671936,50.718689,19.734314,46.687439,19.734314z"/>
	<path d="M123.44104,13.5532227c-4.4725952,0-8.1925659,2.6750488-8.8614502,6.8549805l4.6815186,0.8359375
		c0.2507935-2.257019,1.8810425-3.6782837,4.1799316-3.6782837c2.5496826,0,4.1796875,1.4629517,4.1796875,3.8455811v0.2089233
		l-3.928894,0.4180908c-6.2698975,0.62677-9.4047241,2.8421021-9.4047241,6.9801636
		c0,3.5947876,2.8840332,6.2698364,7.0220947,6.2698364c2.5915527,0,5.1412354-1.3375244,6.3115234-3.3856201v3.0513306h5.0995483
		V22.1219482C132.7202759,16.5209961,128.958252,13.5532227,123.44104,13.5532227z M127.6207275,25.8419189
		c0,3.0931396-1.8808594,5.5593262-5.1410522,5.5593262c-1.9229126,0-3.0931396-1.086731-3.0931396-2.5496826
		c0-1.5048218,1.4210205-2.6751099,4.2214966-3.0096436l4.0126953-0.4597168V25.8419189z"/>
	<path d="M74.6619873,5.6950073L63.4181519,34.9541626h5.8518066l2.3826294-6.4788208h11.3273315l2.3826294,6.4788208h5.8518066
		L79.97052,5.6950073H74.6619873z M73.4498291,23.668457l3.887207-10.5333252l3.8872681,10.5333252H73.4498291z"/>
	<path d="M106.5124512,16.2282715c-1.2537842-1.5883179-3.5110474-2.6750488-6.1026001-2.6750488
		c-6.2279663,0-9.947937,4.4307251-9.947937,10.8676147s3.7199707,10.8676147,9.9898071,10.8676147
		c2.6332397,0,4.973999-1.086731,6.06073-2.758606v2.4243164h5.2249756V5.3606567h-5.2249756V16.2282715z M101.2457886,30.7323608
		c-3.34375,0-5.559082-2.5078125-5.559082-6.3115234s2.215332-6.3115234,5.559082-6.3115234
		c3.3858643,0,5.6011963,2.5078125,5.6011963,6.3115234S104.6316528,30.7323608,101.2457886,30.7323608z"/>
	<path d="M218.8251343,13.5113525c-6.4368896,0-10.993042,4.5979614-10.993042,10.8676147
		c0,6.2698364,4.5561523,10.8676147,10.993042,10.8676147c6.3952637,0,10.993042-4.5977783,10.993042-10.8676147
		C229.8181763,18.109314,225.2203979,13.5113525,218.8251343,13.5113525z M218.8251343,30.6906738
		c-3.4274902,0-5.6845093-2.5496826-5.6845093-6.3117065c0-3.7618408,2.257019-6.3115234,5.6845093-6.3115234
		c3.3858643,0,5.6847534,2.5496826,5.6847534,6.3115234C224.5098877,28.1409912,222.2109985,30.6906738,218.8251343,30.6906738z"/>
	<rect x="200.3503418" y="13.8458862" width="5.2666626" height="21.0663452"/>
	<rect x="171.2166138" y="13.8458862" width="5.2666626" height="21.0663452"/>
	<path d="M202.9835205,4.1484985c-1.8809814,0-3.2601929,1.4210815-3.2601929,3.2186279
		c0,1.8391113,1.3792114,3.2601929,3.2601929,3.2601929c1.9226685,0,3.3439941-1.4210815,3.3439941-3.2601929
		C206.3275146,5.5695801,204.906189,4.1484985,202.9835205,4.1484985z"/>
	<polygon points="188.4794922,28.5588989 183.4636841,13.8458862 177.946228,13.8458862 185.8879395,34.9122314 
		190.9037476,34.9122314 198.8873901,13.8458862 193.4534302,13.8458862 	"/>
	<path d="M173.8500366,4.1484985c-1.8810425,0-3.260437,1.4210815-3.260437,3.2186279
		c0,1.8391113,1.3793945,3.2601929,3.260437,3.2601929c1.9226685,0,3.34375-1.4210815,3.34375-3.2601929
		C177.1937866,5.5695801,175.7727051,4.1484985,173.8500366,4.1484985z"/>
	<path d="M146.8062744,13.5113525c-2.8421631,0-5.0993652,1.1286011-6.2696533,2.7588501v-2.4243164h-5.2666626v28.6737671
		h5.2666626v-9.6973267c1.2121582,1.5048218,3.4691772,2.4242554,5.8934326,2.4242554
		c6.1863403,0,10.1571045-4.430481,10.1571045-10.8676147C156.5871582,17.9420166,152.8671875,13.5113525,146.8062744,13.5113525z
		 M145.8030396,30.6906738c-3.3856201,0-5.6009521-2.5079956-5.6009521-6.3117065
		c0-3.8034668,2.215332-6.3115234,5.6009521-6.3115234c3.3439941,0,5.5593262,2.5080566,5.5593262,6.3115234
		C151.3623657,28.1826782,149.1470337,30.6906738,145.8030396,30.6906738z"/>
	<path d="M163.6929321,7.701416h-5.2666626v6.1860962v4.4307251v8.4014893c0,5.6847534,3.3856812,8.234436,8.4433594,8.234436
		h1.9645386V30.272644h-1.2120972c-2.5496826,0-3.9291382-1.1702881-3.9291382-4.1380615v-7.8163452h5.1829224v-4.4307251
		h-5.1829224V7.701416z"/>
</g>
</svg>
